# xmcd
#
# Track frame offsets:
#	197
#	3435
#	17352
#	34005
#	52645
#	79832
#	99917
#	113587
#	131492
#	150240
#	165055
#	188090
#	203017
#	220452
#	239030
#	255632
#
# Disc length: 3588 seconds
#
# Revision: 5
# Processed by: cddbd v1.5.2PL0 Copyright (c) Steve Scherf et al.
# Submitted via: EasyCDDAExtractor 11.0.2.1
#
DISCID=b30e0210
DTITLE=The Seldom Scene - Scene 20... 20th Anniversary Concert - Disc 1
DYEAR=1992
DGENRE=Bluegrass
TTITLE0=Introduction
TTITLE1=I Haven't Got The Right To Love You
TTITLE2=Gardens and Memories
TTITLE3=House Of Gold
TTITLE4=Pictures From Life's Other Side
TTITLE5=Satan's Jeweled Crown
TTITLE6=Will You Be Ready To Go Home
TTITLE7=Mean Mother Blues
TTITLE8=Were You There
TTITLE9=The Weary Pilgrim
TTITLE10=Leavin' Harlan
TTITLE11=Take Him In
TTITLE12=Stompin' At The Savoy
TTITLE13=Something In The Wind
TTITLE14=Muddy Water
TTITLE15=Open Up The Window, Noah
EXTD=
EXTT0=
EXTT1=
EXTT2=
EXTT3=
EXTT4=
EXTT5=
EXTT6=
EXTT7=
EXTT8=
EXTT9=
EXTT10=
EXTT11=
EXTT12=
EXTT13=
EXTT14=
EXTT15=
PLAYORDER=
